HIERARCHY
ROOT reference
{
  OFFSET 0 0 0
  CHANNELS 6 Xposition Yposition Zposition Zrotation Xrotation Yrotation
  JOINT Hips
  {
    OFFSET 356.501 91.4882 232.072
    CHANNELS 3 Zrotation Xrotation Yrotation
    JOINT RightUpLeg
    {
      OFFSET -9.22368 -1.56954 0.0182318
      CHANNELS 3 Zrotation Xrotation Yrotation
      JOINT RightLeg
      {
        OFFSET 0.0168043 -41.8502 0.039304
        CHANNELS 3 Zrotation Xrotation Yrotation
        JOINT RightFoot
        {
          OFFSET -1.24655 -41.4872 1.84727
          CHANNELS 3 Zrotation Xrotation Yrotation
          End Site
          {
            OFFSET 0 -7.69 17.5
          }
        }
      }
    }
    JOINT LeftUpLeg
    {
      OFFSET 9.32755 -1.5915 0.117934
      CHANNELS 3 Zrotation Xrotation Yrotation
      JOINT LeftLeg
      {
        OFFSET 0.115891 -41.8441 0.138627
        CHANNELS 3 Zrotation Xrotation Yrotation
        JOINT LeftFoot
        {
          OFFSET -0.00258131 -42.0603 -2.16995
          CHANNELS 3 Zrotation Xrotation Yrotation
          End Site
          {
            OFFSET 0 -7.69 17.5
          }
        }
      }
    }
    JOINT Spine
    {
      OFFSET 0.0618908 14.3142 0.263402
      CHANNELS 3 Zrotation Xrotation Yrotation
      JOINT Spine1
      {
        OFFSET 0.00953893 9.71784 0.0772804
        CHANNELS 3 Zrotation Xrotation Yrotation
        JOINT Spine2
        {
          OFFSET 0.0659978 10.1164 -0.109334
          CHANNELS 3 Zrotation Xrotation Yrotation
          JOINT Spine3
          {
            OFFSET 0.00354353 9.7233 0.0181573
            CHANNELS 3 Zrotation Xrotation Yrotation
            JOINT Neck
            {
              OFFSET -0.106539 10.3631 0.143191
              CHANNELS 3 Zrotation Xrotation Yrotation
              JOINT Head
              {
                OFFSET 0.0687213 9.49492 0.178169
                CHANNELS 3 Zrotation Xrotation Yrotation
                End Site
                {
                  OFFSET 0 15.95 0
                }
              }
            }
            JOINT RightShoulder
            {
              OFFSET -3.17341 6.93407 0.0508814
              CHANNELS 3 Zrotation Xrotation Yrotation
              JOINT RightArm
              {
                OFFSET -12.8122 0.02699 0.0058978
                CHANNELS 3 Zrotation Xrotation Yrotation
                JOINT RightForeArm
                {
                  OFFSET -26.4689 -0.0132424 0.0432591
                  CHANNELS 3 Zrotation Xrotation Yrotation
                  JOINT RightHand
                  {
                    OFFSET -25.9762 -0.0747187 0.0544432
                    CHANNELS 3 Zrotation Xrotation Yrotation
                    JOINT RightHandThumb1
                    {
                      OFFSET -2.48905 0.190105 3.12053
                      CHANNELS 3 Zrotation Xrotation Yrotation
                      JOINT RightHandThumb2
                      {
                        OFFSET -3.68274 0 0
                        CHANNELS 3 Zrotation Xrotation Yrotation
                        JOINT RightHandThumb3
                        {
                          OFFSET -2.55832 0 0
                          CHANNELS 3 Zrotation Xrotation Yrotation
                          End Site
                          {
                            OFFSET -2.194 0 0
                          }
                        }
                      }
                    }
                    JOINT RightInHandIndex
                    {
                      OFFSET -3.22368 0.508421 1.97842
                      CHANNELS 3 Zrotation Xrotation Yrotation
                      JOINT RightHandIndex1
                      {
                        OFFSET -5.21684 -0.091368 0.999158
                        CHANNELS 3 Zrotation Xrotation Yrotation
                        JOINT RightHandIndex2
                        {
                          OFFSET -3.61937 0 0
                          CHANNELS 3 Zrotation Xrotation Yrotation
                          JOINT RightHandIndex3
                          {
                            OFFSET -2.0521 0 0
                            CHANNELS 3 Zrotation Xrotation Yrotation
                            End Site
                            {
                              OFFSET -1.805 0 0
                            }
                          }
                        }
                      }
                    }
                    JOINT RightInHandMiddle
                    {
                      OFFSET -3.38211 0.517263 0.756737
                      CHANNELS 3 Zrotation Xrotation Yrotation
                      JOINT RightHandMiddle1
                      {
                        OFFSET -5.17411 -0.084 0.313895
                        CHANNELS 3 Zrotation Xrotation Yrotation
                        JOINT RightHandMiddle2
                        {
                          OFFSET -3.94947 0 0
                          CHANNELS 3 Zrotation Xrotation Yrotation
                          JOINT RightHandMiddle3
                          {
                            OFFSET -2.47579 0 0
                            CHANNELS 3 Zrotation Xrotation Yrotation
                            End Site
                            {
                              OFFSET -1.975 0 0
                            }
                          }
                        }
                      }
                    }
                    JOINT RightInHandRing
                    {
                      OFFSET -3.36516 0.537895 -0.128947
                      CHANNELS 3 Zrotation Xrotation Yrotation
                      JOINT RightHandRing1
                      {
                        OFFSET -4.63474 -0.022105 -0.478947
                        CHANNELS 3 Zrotation Xrotation Yrotation
                        JOINT RightHandRing2
                        {
                          OFFSET -3.44238 0 0
                          CHANNELS 3 Zrotation Xrotation Yrotation
                          JOINT RightHandRing3
                          {
                            OFFSET -2.3881 0 0
                            CHANNELS 3 Zrotation Xrotation Yrotation
                            End Site
                            {
                              OFFSET -1.857 0 0
                            }
                          }
                        }
                      }
                    }
                    JOINT RightInHandPinky
                    {
                      OFFSET -3.16105 0.469368 -1.20179
                      CHANNELS 3 Zrotation Xrotation Yrotation
                      JOINT RightHandPinky1
                      {
                        OFFSET -4.14105 -0.022105 -1.09053
                        CHANNELS 3 Zrotation Xrotation Yrotation
                        JOINT RightHandPinky2
                        {
                          OFFSET -2.75653 0 0
                          CHANNELS 3 Zrotation Xrotation Yrotation
                          JOINT RightHandPinky3
                          {
                            OFFSET -1.74189 0 0
                            CHANNELS 3 Zrotation Xrotation Yrotation
                            End Site
                            {
                              OFFSET -1.645 0 0
                            }
                          }
                        }
                      }
                    }
                  }
                }
              }
            }
            JOINT LeftShoulder
            {
              OFFSET 3.13763 6.93537 0.265461
              CHANNELS 3 Zrotation Xrotation Yrotation
              JOINT LeftArm
              {
                OFFSET 12.4516 -0.0856895 0.350644
                CHANNELS 3 Zrotation Xrotation Yrotation
                JOINT LeftForeArm
                {
                  OFFSET 26.6962 -0.139113 0.0812581
                  CHANNELS 3 Zrotation Xrotation Yrotation
                  JOINT LeftHand
                  {
                    OFFSET 25.9561 0.0264111 -0.243705
                    CHANNELS 3 Zrotation Xrotation Yrotation
                    JOINT LeftHandThumb1
                    {
                      OFFSET 2.48905 0.190105 3.12053
                      CHANNELS 3 Zrotation Xrotation Yrotation
                      JOINT LeftHandThumb2
                      {
                        OFFSET 3.68274 0 0
                        CHANNELS 3 Zrotation Xrotation Yrotation
                        JOINT LeftHandThumb3
                        {
                          OFFSET 2.55832 0 0
                          CHANNELS 3 Zrotation Xrotation Yrotation
                          End Site
                          {
                            OFFSET 2.194 0 0
                          }
                        }
                      }
                    }
                    JOINT LeftInHandIndex
                    {
                      OFFSET 3.22368 0.508421 1.97842
                      CHANNELS 3 Zrotation Xrotation Yrotation
                      JOINT LeftHandIndex1
                      {
                        OFFSET 5.21684 -0.091368 0.999158
                        CHANNELS 3 Zrotation Xrotation Yrotation
                        JOINT LeftHandIndex2
                        {
                          OFFSET 3.61937 0 0
                          CHANNELS 3 Zrotation Xrotation Yrotation
                          JOINT LeftHandIndex3
                          {
                            OFFSET 2.0521 0 0
                            CHANNELS 3 Zrotation Xrotation Yrotation
                            End Site
                            {
                              OFFSET 1.805 0 0
                            }
                          }
                        }
                      }
                    }
                    JOINT LeftInHandMiddle
                    {
                      OFFSET 3.38211 0.517263 0.756737
                      CHANNELS 3 Zrotation Xrotation Yrotation
                      JOINT LeftHandMiddle1
                      {
                        OFFSET 5.17411 -0.084 0.313895
                        CHANNELS 3 Zrotation Xrotation Yrotation
                        JOINT LeftHandMiddle2
                        {
                          OFFSET 3.94947 0 0
                          CHANNELS 3 Zrotation Xrotation Yrotation
                          JOINT LeftHandMiddle3
                          {
                            OFFSET 2.47579 0 0
                            CHANNELS 3 Zrotation Xrotation Yrotation
                            End Site
                            {
                              OFFSET 1.975 0 0
                            }
                          }
                        }
                      }
                    }
                    JOINT LeftInHandRing
                    {
                      OFFSET 3.36516 0.537895 -0.128947
                      CHANNELS 3 Zrotation Xrotation Yrotation
                      JOINT LeftHandRing1
                      {
                        OFFSET 4.63474 -0.022105 -0.478947
                        CHANNELS 3 Zrotation Xrotation Yrotation
                        JOINT LeftHandRing2
                        {
                          OFFSET 3.44238 0 0
                          CHANNELS 3 Zrotation Xrotation Yrotation
                          JOINT LeftHandRing3
                          {
                            OFFSET 2.3881 0 0
                            CHANNELS 3 Zrotation Xrotation Yrotation
                            End Site
                            {
                              OFFSET 1.857 0 0
                            }
                          }
                        }
                      }
                    }
                    JOINT LeftInHandPinky
                    {
                      OFFSET 3.16105 0.469368 -1.20179
                      CHANNELS 3 Zrotation Xrotation Yrotation
                      JOINT LeftHandPinky1
                      {
                        OFFSET 4.14105 -0.022105 -1.09053
                        CHANNELS 3 Zrotation Xrotation Yrotation
                        JOINT LeftHandPinky2
                        {
                          OFFSET 2.75653 0 0
                          CHANNELS 3 Zrotation Xrotation Yrotation
                          JOINT LeftHandPinky3
                          {
                            OFFSET 1.74189 0 0
                            CHANNELS 3 Zrotation Xrotation Yrotation
                            End Site
                            {
                              OFFSET 1.645 0 0
                            }
                          }
                        }
                      }
                    }
                  }
                }
              }
            }
          }
        }
      }
    }
  }
}
MOTION
Frames: 2
Frame Time: 0.00833333
1.500000000000000000e+02 0.000000000000000000e+00 0.000000000000000000e+00 0.000000000000000000e+00 0.000000000000000000e+00 -0.000000000000000000e+00 -4.994574992686019212e-03 1.959346494280585563e-02 4.740136038168059340e-02 -2.219592815414933758e-03 1.283465809344160220e-02 -6.609628534293046642e-02 -2.147941975175483853e-02 3.948023687305601132e-02 3.551733398213117315e-02 9.015923893969554972e-03 -4.381661896861200473e-02 -1.018469511388442501e-02 3.646103697561124679e-03 -6.472565011385793786e-03 -3.335153352081157707e-02 -7.427377613352497028e-03 -9.889260897568596248e-03 1.426066074946049332e-02 -4.716926076481810226e-03 1.052374867829643408e-02 -2.788310855687942472e-02 -7.681645905980354939e-03 -2.417113495579670431e-03 1.175079800375705349e-02 -1.964461639611891379e-06 -3.020519196105409410e-03 3.381558686979639085e-04 -2.464318062681501980e-03 -2.107369456070123503e-03 1.391869248077013798e-03 2.229835853719689721e-04 5.887928189518871905e-04 1.203267331719350689e-04 2.171360904042816790e-04 6.335209559474680409e-04 1.409475951215509340e-04 -5.479232469073448686e-02 -5.754520088265679956e-02 9.952580258715193473e-02 8.989939244975053007e-03 5.485379169979962000e-02 -3.715337124520343842e-02 1.817215278034892134e-02 1.538682778434604347e-02 7.967889960876134436e-03 1.212441041446339490e-01 8.589544250534240921e-02 1.255199722693885467e-01 1.489265798510606975e-01 -2.320414774678961900e-01 2.216811140103575328e-01 0.000000000000000000e+00 0.000000000000000000e+00 0.000000000000000000e+00 -1.278616944692063270e-14 -5.455895667900166810e-15 0.000000000000000000e+00 -1.890857528321985505e-14 -7.540867402940302593e-15 0.000000000000000000e+00 6.698138401587261412e-16 3.450674473765173645e-15 4.539596909347289004e-15 0.000000000000000000e+00 0.000000000000000000e+00 0.000000000000000000e+00 0.000000000000000000e+00 -8.485410717076743221e-15 -4.744498027034642712e-15 0.000000000000000000e+00 -3.387216325633246768e-15 -2.893650137672143382e-14 6.698138401587261412e-16 3.450674473765173645e-15 4.539596909347289004e-15 0.000000000000000000e+00 -8.544778198381095221e-15 -1.530090321240544636e-15 0.000000000000000000e+00 -5.570231687797633950e-15 -1.128327616631456699e-14 0.000000000000000000e+00 -7.491277664591700727e-15 -3.086519907549116617e-14 6.698138401587261412e-16 3.450674473765173645e-15 4.539596909347289004e-15 0.000000000000000000e+00 0.000000000000000000e+00 0.000000000000000000e+00 0.000000000000000000e+00 -4.457508455226105295e-15 -1.596114501648232520e-14 0.000000000000000000e+00 -7.882997314719651054e-16 -2.677089968359237600e-14 6.698138401587261412e-16 3.450674473765173645e-15 4.539596909347289004e-15 0.000000000000000000e+00 0.000000000000000000e+00 0.000000000000000000e+00 0.000000000000000000e+00 5.329057269649006161e-15 -1.340719619672810918e-14 0.000000000000000000e+00 8.848145700082346825e-15 -1.873030871335283465e-14 -1.963625192374797782e-02 -1.975281098542635769e-02 6.252569563855552015e-02 -2.569650829298947628e-02 3.712017648389240310e-02 4.575271102315733168e-02 -9.754775902832939216e-02 1.574693264549768823e-01 -1.068941762010166552e-01 2.800091895695596134e-01 -2.584801138597993611e-03 7.646227853356935000e-02 0.000000000000000000e+00 0.000000000000000000e+00 0.000000000000000000e+00 1.931562390693462908e-15 2.839182840674182617e-15 0.000000000000000000e+00 2.828004063335743560e-15 1.805186123595885137e-15 0.000000000000000000e+00 -1.596662034955786933e-15 5.840737973801189277e-15 9.387770889410583380e-16 0.000000000000000000e+00 0.000000000000000000e+00 0.000000000000000000e+00 0.000000000000000000e+00 -5.569613175532173075e-15 8.443902839705572741e-15 0.000000000000000000e+00 1.773306906793731629e-15 -1.337562213442243925e-14 -1.596662034955786933e-15 5.840737973801189277e-15 9.387770889410583380e-16 0.000000000000000000e+00 8.787524722850128018e-15 -8.463027627278770877e-15 0.000000000000000000e+00 3.967565957975811944e-15 -6.378192969216418811e-15 0.000000000000000000e+00 4.042423845396553297e-15 -1.115432960968475543e-14 -1.596662034955786933e-15 5.840737973801189277e-15 9.387770889410583380e-16 0.000000000000000000e+00 0.000000000000000000e+00 0.000000000000000000e+00 0.000000000000000000e+00 5.503684708905127590e-15 1.890351825322409136e-15 0.000000000000000000e+00 -3.333278690670208178e-15 -2.544882733583652891e-14 -1.596662034955786933e-15 5.840737973801189277e-15 9.387770889410583380e-16 0.000000000000000000e+00 0.000000000000000000e+00 0.000000000000000000e+00 0.000000000000000000e+00 -2.313935678917495755e-15 -1.221940701394374605e-14 0.000000000000000000e+00 2.413511625344352526e-15 -2.869303937305789923e-15
1.500000000000000000e+02 0.000000000000000000e+00 0.000000000000000000e+00 0.000000000000000000e+00 0.000000000000000000e+00 -0.000000000000000000e+00 6.900801128798816041e-03 2.467422284762193357e-03 9.509553771876224845e-03 4.947358823508377600e-03 -4.979924165770330778e-03 -4.743877737469255618e-02 -3.054487208858797792e-02 2.228896568421414107e-02 4.929787925314638164e-02 6.267808985010685577e-03 -2.466289956337773190e-02 3.173833604207149627e-03 9.681640002313056251e-04 -8.016620266430993930e-03 -2.099341830033977022e-02 -1.786289175406727617e-02 -7.168469877248851915e-03 1.838631444139704127e-02 3.569981941282511853e-03 9.938169223272912481e-03 2.251232955224779630e-03 -5.999732287111898300e-03 -8.780029621246831714e-03 7.683312136917135049e-03 -3.324703184297571920e-04 -3.217354886244790189e-03 -3.751770918376471227e-05 -3.608729749492026791e-03 -1.854571387183361064e-03 1.010849356748259051e-03 4.295203014156269081e-04 4.315481371808823447e-04 1.440079024619335033e-04 4.292168803718132697e-04 4.517781891921016655e-04 1.492037015073134621e-04 1.660719955117406429e-02 -1.380760585002962712e-03 8.623589890058845284e-03 2.804571725390322262e-02 6.020741189935682053e-02 -3.852635528834708750e-02 -3.296170213955636370e-03 2.560670607582997069e-02 5.460849429358270724e-02 4.136346224960134321e-02 1.144762385153834244e-01 7.537568770520154671e-02 1.462045096125697830e-01 -2.151003821880733968e-01 2.790468543890884945e-01 0.000000000000000000e+00 0.000000000000000000e+00 0.000000000000000000e+00 8.045427215801444784e-15 -1.032842821984241873e-16 0.000000000000000000e+00 3.545459327177110506e-15 1.457940973998079403e-15 0.000000000000000000e+00 1.344303942996872968e-15 -1.668627230866364778e-17 3.284103955656768450e-15 0.000000000000000000e+00 0.000000000000000000e+00 0.000000000000000000e+00 0.000000000000000000e+00 4.323900120880740216e-15 2.910641984147333991e-15 0.000000000000000000e+00 6.429276968612871690e-15 2.988248273989430337e-16 1.344303942996872968e-15 -1.668627230866364778e-17 3.284103955656768450e-15 0.000000000000000000e+00 -2.250903693334962802e-15 -1.159098377796172834e-15 0.000000000000000000e+00 3.080056301121750322e-16 6.239908204076059669e-15 0.000000000000000000e+00 -3.757597256770635242e-15 -4.971439216622591156e-16 1.344303942996872968e-15 -1.668627230866364778e-17 3.284103955656768450e-15 0.000000000000000000e+00 0.000000000000000000e+00 0.000000000000000000e+00 0.000000000000000000e+00 3.866098697762794896e-15 -7.349920989787992000e-15 0.000000000000000000e+00 -4.356481315402318965e-15 4.228529472643625341e-15 1.344303942996872968e-15 -1.668627230866364778e-17 3.284103955656768450e-15 0.000000000000000000e+00 0.000000000000000000e+00 0.000000000000000000e+00 0.000000000000000000e+00 -2.435641251186478399e-15 1.755891373088260648e-15 0.000000000000000000e+00 2.554345960440786799e-15 3.104847849266571904e-15 1.219837030955036282e-02 -2.302391935304104464e-02 -1.798683649606096918e-02 -5.918712547177899796e-02 7.897334837782455817e-04 6.113465789122696226e-02 9.529125203759790386e-02 1.163736702450408021e-02 5.884790103619864932e-02 1.807761047821404843e-01 1.035003699492018647e-01 7.199460504719532028e-02 0.000000000000000000e+00 0.000000000000000000e+00 0.000000000000000000e+00 -2.313500391406136431e-16 -1.640240383546691351e-15 0.000000000000000000e+00 4.251561313995876865e-15 -2.635346352801585452e-15 0.000000000000000000e+00 -6.628705368350053075e-16 -3.427137827173430427e-15 2.502229567007709493e-15 0.000000000000000000e+00 0.000000000000000000e+00 0.000000000000000000e+00 0.000000000000000000e+00 1.190671964524210496e-15 -8.093715081014860287e-16 0.000000000000000000e+00 1.778574796491001889e-15 -8.747661056200675922e-15 -6.628705368350053075e-16 -3.427137827173430427e-15 2.502229567007709493e-15 0.000000000000000000e+00 -3.785477904621633630e-15 -3.311181108049413709e-15 0.000000000000000000e+00 3.716753478301291837e-15 3.900875098939992306e-15 0.000000000000000000e+00 1.996400848435174195e-15 -8.241913867926618684e-15 -6.628705368350053075e-16 -3.427137827173430427e-15 2.502229567007709493e-15 0.000000000000000000e+00 0.000000000000000000e+00 0.000000000000000000e+00 0.000000000000000000e+00 2.417062909416582281e-15 7.184809286668404745e-15 0.000000000000000000e+00 -9.746730851670690608e-16 -2.794023929185604133e-15 -6.628705368350053075e-16 -3.427137827173430427e-15 2.502229567007709493e-15 0.000000000000000000e+00 0.000000000000000000e+00 0.000000000000000000e+00 0.000000000000000000e+00 4.054455810154378483e-15 -1.368947234467561639e-14 0.000000000000000000e+00 -1.172418621881027075e-15 -1.338745376107240192e-15
